<?xml version="1.0" encoding="UTF-8"?>
<svg id="logo1" xmlns="http://www.w3.org/2000/svg" viewBox="0 0 256 256">
  <defs>
    <style>
      .cls-1 {
        stroke-width: 0px;
      }
    </style>
  </defs>
  <path id="gear" class="cls-1" d="m213.77,66.2c-6.74-9.37-14.86-17.41-23.97-23.96l2.26-25.48-30.68-12.71-16.42,19.62c-11.07-1.81-22.51-1.86-33.9,0l-16.41-19.6-30.68,12.71,2.25,25.47c-9.37,6.74-17.41,14.86-23.96,23.97l-25.48-2.26-12.71,30.68,19.62,16.42c-1.81,11.07-1.87,22.51,0,33.9l-19.6,16.41,12.71,30.68,25.47-2.25c6.74,9.37,14.86,17.41,23.97,23.96l-2.26,25.48,30.68,12.71,16.42-19.62c11.07,1.81,22.51,1.86,33.9,0l16.41,19.6,30.68-12.71-2.25-25.47c9.37-6.74,17.41-14.86,23.96-23.97l25.48,2.26,12.71-30.68-19.62-16.42c1.81-11.07,1.87-22.51,0-33.9l19.6-16.41-12.71-30.68-25.47,2.25Zm-51.93,139.29c-43.98,19.18-95.01-1.96-112.55-46.62-16.52-42.08,3.44-90.28,44.88-108.35,43.98-19.18,95.01,1.96,112.55,46.62,16.53,42.08-3.44,90.28-44.88,108.35Z"/>
  <path id="south" class="cls-1" d="m101.89,191.12c-1.79.68-3.75.76-5.59.24-1.46-.41-2.82-.83-3.91-1.62-2.71-1.96-5.49-2.8-8.77-2.95-4.73-.21-6.14-2.88-4.31-7.46,1.89-4.73,5.08-8.52,8.42-12.26,3.22-3.61,6.77-6.5,11.13-8.94,9.37-5.23,17.57-12.04,21.78-22.5.49-1.21,1.05-2.55,1.98-3.4,1.95-1.78,3.09-3.82,3.45-6.42.41-2.94,2.77-4.45,4.9-6,.39-.29,1.66-.64,2.04-.08.82,1.22,1.52,3.58,2.07,4.97.8,2.02,1.93,2.46,3.82,1.16,1.03-.71,2.35-2.02,3.5-1.73.82.2,2.16,2.89,2.3,4.35.19,2.04.04,4.5-.97,6.18-3.06,5.12-6.46,10.05-10.03,14.84-1.3,1.74-2.16,3.44-.58,4.89,3.5,3.21.83,2.72-1.67,3.21-1.92.37-3.86.81-5.67,1.53-3.45,1.38-5.58,3.87-6.35,7.67-.52,2.58-1.89,4.98-2.54,7.55-1.75,6.91-6.35,11.56-12,15.32-.91.61-1.93,1.04-2.99,1.44Z"/>
  <path id="north" class="cls-1" d="m182.35,88.45c-.98,3.52-1.69,6.77-2.7,10.27-.63,2.19-1.12,4.73-5.55,4.53s-6.12,1.64-4.84,6.24c.4,1.45.05,2.78-.75,3.8-2.92,3.7-4.81,7.93-7.16,12.01-.71,1.24-1.75,2.23-2.77,3.23-6.57,6.46-3.59.94-7.77-.16-2.24-.59-1.92-2.1-1.03-3.7.57-1.02,1.07-2.07,1.61-3.1,2.51-4.78,1.11-9.15-3.71-11.5-1.34-.65-2.79-1.12-4.08-1.86-2.75-1.58-3.05-4.07-.46-5.94,2.6-1.88,5.1-3.41,5.47-7.14.48-4.83-.51-9.08-1.02-14.18-.45-4.48-3.87-8.97-7.77-13.14-3.15-3.37-5.05-7.79-7.38-11.81-.19-.34-.18-.8-.11-1.29.1-.74.79-1.27,1.53-1.16.68.1,1.32.24,1.6.63,2.13,2.96,4.73,5.05,8.27,6.06,2.34.66,2.69,2.84,3.01,4.78.81,4.9,3.43,8.97,5.75,13.19.79,1.43,1.58,1.66,2.21-.22.22-.67.24-2.13.86-2.26.9-.2,2.99,1.07,3.19,2.14.23,1.26.36,2.5.49,3.81.26,2.74,1.49,4.55,4.06,5.74,4.35,2.03,8.54,4,12.7-.36.51-.54,1.47-.82,2.25-.9,2.12-.2,4.18.05,4.13,2.28Z"/>
</svg>