<?xml version="1.0" encoding="UTF-8"?>
<svg id="logo2" xmlns="http://www.w3.org/2000/svg" viewBox="0 0 1075 256">
  <defs>
    <style>
      .cls-1 {
        stroke-width: 0px;
      }
    </style>
  </defs>
  <path id="gear" class="cls-1" d="m213.77,66.2c-6.74-9.37-14.86-17.41-23.97-23.96l2.26-25.48-30.68-12.71-16.42,19.62c-11.07-1.81-22.51-1.86-33.9,0l-16.41-19.6-30.68,12.71,2.25,25.47c-9.37,6.74-17.41,14.86-23.96,23.97l-25.48-2.26-12.71,30.68,19.62,16.42c-1.81,11.07-1.87,22.51,0,33.9l-19.6,16.41,12.71,30.68,25.47-2.25c6.74,9.37,14.86,17.41,23.97,23.96l-2.26,25.48,30.68,12.71,16.42-19.62c11.07,1.81,22.51,1.86,33.9,0l16.41,19.6,30.68-12.71-2.25-25.47c9.37-6.74,17.41-14.86,23.96-23.97l25.48,2.26,12.71-30.68-19.62-16.42c1.81-11.07,1.87-22.51,0-33.9l19.6-16.41-12.71-30.68-25.47,2.25Zm-51.93,139.29c-43.98,19.18-95.01-1.96-112.55-46.62-16.52-42.08,3.44-90.28,44.88-108.35,43.98-19.18,95.01,1.96,112.55,46.62,16.53,42.08-3.44,90.28-44.88,108.35Z"/>
  <path id="south" class="cls-1" d="m101.89,191.12c-1.79.68-3.75.76-5.59.24-1.46-.41-2.82-.83-3.91-1.62-2.71-1.96-5.49-2.8-8.77-2.95-4.73-.21-6.14-2.88-4.31-7.46,1.89-4.73,5.08-8.52,8.42-12.26,3.22-3.61,6.77-6.5,11.13-8.94,9.37-5.23,17.57-12.04,21.78-22.5.49-1.21,1.05-2.55,1.98-3.4,1.95-1.78,3.09-3.82,3.45-6.42.41-2.94,2.77-4.45,4.9-6,.39-.29,1.66-.64,2.04-.08.82,1.22,1.52,3.58,2.07,4.97.8,2.02,1.93,2.46,3.82,1.16,1.03-.71,2.35-2.02,3.5-1.73.82.2,2.16,2.89,2.3,4.35.19,2.04.04,4.5-.97,6.18-3.06,5.12-6.46,10.05-10.03,14.84-1.3,1.74-2.16,3.44-.58,4.89,3.5,3.21.83,2.72-1.67,3.21-1.92.37-3.86.81-5.67,1.53-3.45,1.38-5.58,3.87-6.35,7.67-.52,2.58-1.89,4.98-2.54,7.55-1.75,6.91-6.35,11.56-12,15.32-.91.61-1.93,1.04-2.99,1.44Z"/>
  <path id="north" class="cls-1" d="m182.35,88.45c-.98,3.52-1.69,6.77-2.7,10.27-.63,2.19-1.12,4.73-5.55,4.53s-6.12,1.64-4.84,6.24c.4,1.45.05,2.78-.75,3.8-2.92,3.7-4.81,7.93-7.16,12.01-.71,1.24-1.75,2.23-2.77,3.23-6.57,6.46-3.59.94-7.77-.16-2.24-.59-1.92-2.1-1.03-3.7.57-1.02,1.07-2.07,1.61-3.1,2.51-4.78,1.11-9.15-3.71-11.5-1.34-.65-2.79-1.12-4.08-1.86-2.75-1.58-3.05-4.07-.46-5.94,2.6-1.88,5.1-3.41,5.47-7.14.48-4.83-.51-9.08-1.02-14.18-.45-4.48-3.87-8.97-7.77-13.14-3.15-3.37-5.05-7.79-7.38-11.81-.19-.34-.18-.8-.11-1.29.1-.74.79-1.27,1.53-1.16.68.1,1.32.24,1.6.63,2.13,2.96,4.73,5.05,8.27,6.06,2.34.66,2.69,2.84,3.01,4.78.81,4.9,3.43,8.97,5.75,13.19.79,1.43,1.58,1.66,2.21-.22.22-.67.24-2.13.86-2.26.9-.2,2.99,1.07,3.19,2.14.23,1.26.36,2.5.49,3.81.26,2.74,1.49,4.55,4.06,5.74,4.35,2.03,8.54,4,12.7-.36.51-.54,1.47-.82,2.25-.9,2.12-.2,4.18.05,4.13,2.28Z"/>
  <g id="lines">
    <path class="cls-1" d="m1072.6,189H264v-10h808.6v10Zm0-112H264v-10h808.6v10Z"/>
  </g>
  <g id="text">
    <path class="cls-1" d="m847.06,156c-.99,0-2-.29-2.87-.91l-27.83-19.58c-.05-.04-.1-.08-.16-.11h-9.94v15.6c0,2.76-2.24,5-5,5s-5-2.24-5-5v-46c0-2.76,2.24-5,5-5h38.6c6.73,0,12.2,5.47,12.2,12.2v6.7c0,9.1-7.4,16.5-16.5,16.5h-1.98l16.36,11.51c2.26,1.59,2.8,4.71,1.21,6.97-.97,1.38-2.52,2.12-4.09,2.12Zm-40.8-30.6h29.3c3.58,0,6.5-2.92,6.5-6.5v-6.7c0-1.21-.99-2.2-2.2-2.2h-33.6v15.4Zm-475.07,30.6c-1.3,0-2.59-.51-3.54-1.47l-37.26-37.42v33.89c0,2.76-2.24,5-5,5s-5-2.24-5-5v-46c0-2.02,1.22-3.85,3.09-4.62,1.87-.77,4.02-.34,5.45,1.09l37.26,37.42v-33.89c0-2.76,2.24-5,5-5s5,2.24,5,5v46c0,2.02-1.22,3.85-3.09,4.62-.62.25-1.27.38-1.91.38Zm232.5,0c-1.3,0-2.59-.51-3.54-1.47l-37.26-37.42v33.89c0,2.76-2.24,5-5,5s-5-2.24-5-5v-46c0-2.02,1.22-3.85,3.09-4.62,1.87-.77,4.02-.34,5.45,1.09l37.26,37.42v-33.89c0-2.76,2.24-5,5-5s5,2.24,5,5v46c0,2.02-1.22,3.85-3.09,4.62-.62.25-1.26.38-1.91.38Zm474.89,0h-28.1c-2.76,0-5-2.24-5-5s2.24-5,5-5h28.1c3.58,0,6.5-2.92,6.5-6.5s-2.92-6.5-6.5-6.5h-16.6c-9.1,0-16.5-7.4-16.5-16.5s7.4-16.5,16.5-16.5h28.1c2.76,0,5,2.24,5,5s-2.24,5-5,5h-28.1c-3.58,0-6.5,2.92-6.5,6.5s2.92,6.5,6.5,6.5h16.6c9.1,0,16.5,7.4,16.5,16.5s-7.4,16.5-16.5,16.5Zm-47.17,0h-28.5c-8.99,0-16.3-7.31-16.3-16.3v-34.7c0-2.76,2.24-5,5-5h39.8c2.76,0,5,2.24,5,5s-2.24,5-5,5h-34.8v13h27.97c2.76,0,5,2.24,5,5s-2.24,5-5,5h-27.97v6.7c0,3.47,2.83,6.3,6.3,6.3h28.5c2.76,0,5,2.24,5,5s-2.24,5-5,5Zm-81.99,0c-1.83,0-3.52-1-4.39-2.61l-25-46c-1.32-2.43-.42-5.46,2.01-6.78,2.43-1.32,5.46-.42,6.78,2.01l20.61,37.92,20.61-37.92c1.32-2.43,4.35-3.33,6.78-2.01,2.43,1.32,3.32,4.35,2.01,6.78l-25,46c-.88,1.61-2.56,2.61-4.39,2.61Zm-42.23,0c-2.76,0-5-2.24-5-5v-46c0-2.76,2.24-5,5-5s5,2.24,5,5v46c0,2.76-2.24,5-5,5Zm-104.29,0h-27.5c-2.76,0-5-2.24-5-5v-46c0-2.76,2.24-5,5-5h27.5c13.07,0,23.7,10.63,23.7,23.7v8.6c0,13.07-10.63,23.7-23.7,23.7Zm-22.5-10h22.5c7.55,0,13.7-6.15,13.7-13.7v-8.6c0-7.55-6.15-13.7-13.7-13.7h-22.5v36Zm-48.11,10h-36.6c-5.18,0-9.4-4.17-9.4-9.3v-41.7c0-2.76,2.24-5,5-5s5,2.24,5,5v41h36c2.76,0,5,2.24,5,5s-2.24,5-5,5Zm-62.06,0c-2.76,0-5-2.24-5-5v-9.25h-35.45v9.25c0,2.76-2.24,5-5,5s-5-2.24-5-5v-24.35c0-14.7,11.96-26.65,26.65-26.65h23.8c2.76,0,5,2.24,5,5v46c0,2.76-2.24,5-5,5Zm-40.45-24.25h35.45v-21.75h-18.8c-9.18,0-16.65,7.47-16.65,16.65v5.1Zm-92.96,24.25c-2.76,0-5-2.24-5-5v-46c0-2.76,2.24-5,5-5s5,2.24,5,5v46c0,2.76-2.24,5-5,5Zm-62.43,0c-2.76,0-5-2.24-5-5v-41.6c0-5.18,4.22-9.4,9.4-9.4h37c2.76,0,5,2.24,5,5s-2.24,5-5,5h-36.4v13h29.7c2.76,0,5,2.24,5,5s-2.24,5-5,5h-29.7v18c0,2.76-2.24,5-5,5Zm-43.07,0h-39c-1.95,0-3.72-1.13-4.54-2.9-.82-1.77-.54-3.85.72-5.33l32.02-37.77h-28.21c-2.76,0-5-2.24-5-5s2.24-5,5-5h39c1.95,0,3.72,1.13,4.54,2.9.82,1.77.54,3.85-.72,5.33l-32.02,37.77h28.21c2.76,0,5,2.24,5,5s-2.24,5-5,5Z"/>
  </g>
</svg>